
********* Hole.In.One.2010.DVDRiP.XViD.OPTIONAL_MULTI_SUB-Zen_Bud *******

Format                           : AVI
File size                        : 706 MiB
Duration                         : 1h 35mn
Overall bit rate                 : 1 029 Kbps

Video

Format                           : MPEG-4 Visual
Codec ID/Hint                    : XviD
Duration                         : 1h 35mn
Bit rate                         : 888 Kbps
Width                            : 720 pixels
Height                           : 576 pixels
Display aspect ratio             : 16:9
Stream size                      : 609 MiB (86%)
Writing library                  : XviD 1.1.2 (UTC 2006-11-01)

Audio

Format                           : MPEG Audio
Codec ID/Hint                    : MP3
Duration                         : 1h 35mn
Bit rate                         : 128 Kbps
Channel(s)                       : 2 channels
Sampling rate                    : 48.0 KHz
Stream size                      : 87.8 MiB (12%)
Language                         : English

Text #1
Language                         : English

Text #2
Language                         : Swedish

Text #3
Language                         : Spanish

Text #4
Language                         : Danish

Text #5
Language                         : Dutch

Text #6
Language                         : Finnish

Text #7
Language                         : Norwegian

Text #8
Language                         : Portuguese

Text #9
Language                         : Swedish

